<?xml version="1.0" standalone="no"?>
<!DOCTYPE svg PUBLIC "-//W3C//DTD SVG 20010904//EN"
 "http://www.w3.org/TR/2001/REC-SVG-20010904/DTD/svg10.dtd">
<svg version="1.0" xmlns="http://www.w3.org/2000/svg"
 width="209.000000pt" height="211.000000pt" viewBox="0 0 209.000000 211.000000"
 preserveAspectRatio="xMidYMid meet">

<g transform="translate(0.000000,211.000000) scale(0.100000,-0.100000)"
fill="000" stroke="none">
<path d="M0 1055 l0 -1055 1045 0 1045 0 0 1055 0 1055 -1045 0 -1045 0 0
-1055z m460 750 c7 -8 17 -15 23 -15 5 0 29 -18 53 -40 l44 -40 92 0 92 0 43
-42 c36 -35 43 -48 42 -78 -2 -33 -2 -34 -6 -5 -3 18 -21 47 -46 73 l-41 42
-91 0 -91 0 -39 40 c-42 43 -56 48 -75 25 -28 -34 -80 -2 -59 37 12 22 42 23
59 3z m245 -15 c3 -6 18 -10 33 -10 19 0 45 -18 94 -67 65 -65 68 -69 66 -113
l-1 -45 -4 45 c-4 40 -12 53 -66 108 -49 50 -68 62 -92 62 -21 0 -40 9 -56 26
-23 25 -23 26 -2 15 12 -6 25 -16 28 -21z m245 -177 c0 -31 -3 -53 -7 -50 -3
4 -5 28 -4 55 1 46 0 49 -69 117 -38 38 -70 74 -70 80 0 5 34 -25 75 -68 l75
-77 0 -57z m-13 155 l53 -52 -2 -81 -2 -80 -3 75 -4 75 -57 58 c-31 31 -52 57
-47 57 5 0 33 -23 62 -52z m140 -145 c-2 -38 -3 -7 -3 67 0 74 1 105 3 68 2
-38 2 -98 0 -135z m50 0 c-2 -38 -3 -7 -3 67 0 74 1 105 3 68 2 -38 2 -98 0
-135z m95 155 l-41 -43 -4 -90 -3 -90 -2 95 -2 94 37 38 c20 21 42 38 47 38 6
0 -9 -19 -32 -42z m54 -57 c-51 -52 -55 -60 -59 -111 l-3 -55 -2 60 -2 60 55
53 c30 30 56 64 56 75 2 20 2 20 6 -2 4 -18 -8 -36 -51 -80z m101 67 c-3 -7
-5 -2 -5 12 0 14 2 19 5 13 2 -7 2 -19 0 -25z m262 -84 l-43 -44 -100 0 -100
0 -38 -37 c-21 -20 -38 -43 -38 -50 0 -7 -4 -13 -10 -13 -17 0 -12 9 36 60
l47 50 100 0 101 0 38 37 c31 30 38 45 40 78 l1 40 4 -39 c4 -35 0 -43 -38
-82z m-312 -33 c-36 -36 -57 -67 -60 -86 -4 -29 -4 -28 -6 5 -1 31 7 43 54 90
30 30 56 63 56 75 1 17 2 16 6 -4 4 -18 -8 -36 -50 -80z m-270 63 c3 -8 1 -25
-6 -37 -6 -12 -12 -49 -14 -82 l-3 -60 -2 66 c-1 49 -6 68 -17 73 -18 7 -19
28 -3 44 17 17 37 15 45 -4z m697 -66 c8 -13 6 -21 -7 -36 -13 -14 -17 -38
-17 -105 0 -47 5 -89 10 -92 6 -3 10 -24 10 -45 0 -54 -48 -111 -94 -109 -27
2 -28 2 -6 6 14 3 40 19 58 36 25 24 32 39 32 68 0 21 -4 41 -10 44 -5 3 -10
43 -10 89 0 70 -3 86 -20 101 -23 21 -25 36 -8 53 17 17 48 11 62 -10z m140 0
c8 -13 6 -21 -7 -36 -9 -10 -17 -25 -17 -33 0 -8 -18 -33 -40 -54 l-40 -39 0
-90 0 -90 -47 -48 c-40 -41 -53 -48 -83 -46 l-35 1 35 4 c24 3 47 18 77 47
l43 43 0 95 0 94 40 39 c43 42 49 59 25 69 -15 5 -21 47 -8 60 12 11 45 2 57
-16z m-1434 -3 c15 -18 175 -22 185 -5 3 6 25 10 48 10 34 0 48 -6 79 -37 21
-20 38 -46 37 -58 0 -17 -2 -17 -10 5 -20 50 -59 80 -105 80 -24 0 -46 -4 -49
-10 -3 -5 -44 -10 -89 -10 -62 0 -87 -4 -96 -15 -28 -34 -81 -4 -60 34 13 25
42 27 60 6z m1019 -53 c21 -39 -31 -71 -59 -37 -11 14 -15 14 -34 -2 -11 -10
-7 -1 9 19 33 40 69 49 84 20z m-1107 -39 l38 -37 0 -101 0 -101 43 -42 c23
-23 52 -43 62 -43 19 -1 19 -2 1 -6 -12 -3 -34 10 -67 43 l-49 48 0 101 c0
101 0 101 -32 132 -25 24 -44 33 -78 36 l-45 4 45 1 c39 2 49 -3 82 -35z
m1510 -176 c-12 -13 -22 -34 -22 -48 0 -16 -22 -46 -67 -92 -36 -37 -67 -66
-69 -64 -2 2 26 32 61 67 51 50 65 71 65 94 0 28 37 82 48 71 3 -3 -4 -15 -16
-28z m-1378 7 c20 -20 20 -29 0 -49 -15 -15 -15 -18 6 -41 13 -13 19 -24 13
-24 -12 0 -83 78 -83 91 0 10 29 39 40 39 5 0 16 -7 24 -16z m305 -8 c35 -19
61 -57 61 -92 l0 -26 29 31 c45 48 109 42 139 -14 9 -15 11 -16 12 -4 0 30 36
51 82 49 80 -5 88 -2 88 25 0 16 6 25 15 25 9 0 15 -9 15 -25 0 -22 4 -25 39
-25 l39 0 4 -57 c1 -32 2 -73 0 -90 -3 -32 -5 -33 -46 -33 -23 0 -47 5 -54 12
-7 7 -12 39 -12 73 l0 61 -65 2 c-68 2 -91 -11 -60 -35 11 -7 31 -13 45 -13
14 0 31 -5 38 -12 19 -19 15 -66 -7 -78 -45 -24 -135 -1 -116 29 5 9 10 10 18
2 16 -16 84 -14 90 3 8 19 -12 36 -43 36 -14 0 -36 7 -48 16 -20 14 -22 14
-22 0 0 -13 -13 -16 -70 -16 -72 0 -82 -7 -53 -35 12 -13 28 -16 60 -12 48 5
65 -6 34 -22 -60 -32 -140 9 -142 73 -1 21 -3 25 -6 11 -17 -64 -67 -95 -153
-95 l-60 0 0 125 0 125 60 0 c34 0 74 -7 89 -14z m526 -6 c0 -8 -8 -16 -17
-18 -13 -2 -18 3 -18 18 0 15 5 20 18 18 9 -2 17 -10 17 -18z m136 -56 c25 -7
39 -49 39 -114 0 -47 -3 -60 -15 -60 -12 0 -15 13 -15 56 0 70 -12 94 -48 94
-42 0 -52 -17 -52 -87 0 -49 -3 -63 -15 -63 -12 0 -15 16 -15 88 l0 88 53 1
c28 1 59 0 68 -3z m-1071 -73 c48 -47 70 -61 98 -64 l37 -4 -40 -1 c-37 -2
-46 3 -100 58 -52 52 -64 59 -104 63 l-46 3 47 2 c44 2 50 -1 108 -57z m1426
-51 l-73 -70 -64 2 -64 2 61 3 c60 4 61 5 124 68 36 36 70 65 76 65 7 0 -21
-31 -60 -70z m-1466 -5 c30 -30 50 -55 44 -55 -5 0 -32 22 -59 49 -26 28 -60
52 -74 54 -24 4 -24 4 4 6 25 1 41 -10 85 -54z m1490 -50 l-64 -65 -81 2 -80
1 82 6 83 6 57 58 c32 31 60 57 63 57 2 0 -25 -29 -60 -65z m-1410 -48 l95 -3
-100 -2 -99 -2 -43 42 c-24 23 -43 47 -43 52 0 6 21 -11 48 -36 l47 -47 95 -4z
m1384 -43 c13 -33 -34 -60 -51 -30 -6 10 -30 16 -78 19 l-70 3 72 2 c39 1 75
7 78 12 10 16 42 12 49 -6z m-1372 -11 c-40 -2 -103 -2 -140 0 -37 2 -4 3 73
3 77 0 107 -2 67 -3z m564 -26 c52 -45 42 -176 -15 -207 -11 -5 -82 -10 -158
-10 -95 0 -143 -4 -151 -12 -7 -7 -12 -43 -12 -90 l0 -78 -30 0 -30 0 0 93 c1
139 12 147 202 147 73 0 139 4 146 9 9 5 12 25 10 57 l-3 49 -177 3 -178 2 0
30 0 30 184 0 c179 0 186 -1 212 -23z m416 -14 c50 -36 88 -101 88 -150 0 -30
-3 -33 -30 -33 -26 0 -30 4 -30 28 0 37 -33 88 -72 113 -52 32 -128 22 -174
-21 -43 -42 -60 -100 -45 -150 12 -42 64 -94 106 -107 22 -7 31 -17 33 -36 3
-23 0 -27 -23 -27 -33 0 -93 31 -121 62 -99 108 -68 280 60 340 63 29 153 21
208 -19z m-969 0 c-40 -2 -106 -2 -145 0 -40 1 -8 3 72 3 80 0 112 -2 73 -3z
m1380 -10 c-40 -2 -106 -2 -145 0 -40 1 -8 3 72 3 80 0 112 -2 73 -3z m-1377
-36 l69 -3 -72 -2 c-39 -1 -75 -6 -78 -12 -3 -5 -17 -10 -31 -10 -19 0 -24 5
-24 24 0 30 18 38 46 20 12 -7 53 -15 90 -17z m1377 -14 c-40 -2 -106 -2 -145
0 -40 1 -8 3 72 3 80 0 112 -2 73 -3z m-1318 -33 c4 -6 -24 -10 -77 -10 l-84
0 -54 -55 c-29 -30 -56 -53 -58 -50 -2 2 24 31 57 64 l61 61 75 0 c40 0 77 -4
80 -10z m1340 -50 c27 -27 45 -50 39 -50 -5 0 -30 20 -54 45 l-43 44 -91 4
-91 3 95 2 96 2 49 -50z m-1397 1 c-67 -6 -68 -6 -136 -73 -37 -38 -70 -68
-73 -68 -4 0 28 34 70 75 l76 75 65 -2 65 -1 -67 -6z m1052 -213 c0 -24 -4
-28 -30 -28 -18 0 -30 5 -30 13 0 7 -34 46 -76 87 -94 93 -101 105 -78 131 17
19 20 18 116 -78 77 -77 98 -104 98 -125z m284 163 c33 -34 59 -51 80 -54 30
-4 30 -4 -4 -5 -31 -2 -43 5 -85 48 -46 47 -51 49 -109 53 l-61 3 65 2 66 2
48 -49z m-1319 2 c-46 -4 -55 -9 -116 -70 -50 -48 -66 -72 -64 -89 1 -15 -8
-32 -29 -51 -28 -25 -29 -25 -8 -2 12 14 22 38 22 53 0 21 17 46 67 97 l66 69
56 -2 56 -2 -50 -3z m1275 -58 c51 -51 58 -55 105 -57 l50 -2 -52 -3 -53 -4
-60 60 c-33 34 -57 61 -52 61 4 0 32 -25 62 -55z m-1290 8 c-8 -3 -32 -22 -52
-41 l-38 -36 0 -92 0 -92 -40 -40 c-44 -43 -48 -57 -24 -83 22 -24 10 -59 -20
-59 -33 0 -50 23 -36 49 6 12 15 21 20 21 6 0 10 8 10 18 0 10 18 36 40 57
l40 39 0 90 0 90 42 43 c23 24 49 43 58 42 13 0 13 -1 0 -6z m1232 -40 l48
-47 0 -100 c0 -99 0 -100 32 -133 26 -27 40 -33 77 -35 l46 -1 -44 -4 c-40 -4
-48 -1 -82 33 l-39 38 0 101 0 101 -42 41 c-24 22 -50 43 -58 46 -13 5 -13 6
0 6 8 1 36 -20 62 -46z m-1196 0 c-16 -3 -42 -17 -58 -33 -22 -23 -28 -37 -28
-74 0 -24 5 -48 10 -51 6 -3 10 -43 10 -87 0 -60 4 -86 16 -99 29 -32 -9 -85
-42 -58 -19 16 -18 55 2 63 13 5 15 19 10 88 -3 46 -8 107 -12 136 -6 51 -4
56 27 88 25 25 41 34 63 33 l31 -2 -29 -4z m1202 -101 c-4 -21 -32 -36 -52
-29 -20 8 -21 53 -1 65 14 7 13 11 -5 27 -11 10 -20 23 -20 29 0 6 19 -9 41
-33 22 -24 39 -51 37 -59z m-970 -194 c8 -8 15 -8 29 3 10 7 5 -1 -11 -19 -44
-47 -102 -38 -82 13 6 18 47 20 64 3z m103 -6 c-6 -10 -28 -35 -51 -55 l-40
-37 -97 0 c-96 0 -98 0 -130 -32 -27 -26 -33 -39 -33 -75 0 -24 -4 -43 -10
-43 -5 0 -10 17 -10 39 0 30 8 47 38 80 l37 42 102 1 102 2 48 48 c52 53 59
57 44 30z m49 -11 c0 -22 -13 -42 -55 -81 -50 -49 -54 -57 -58 -104 l-3 -51
-2 50 c-2 49 0 52 53 105 40 40 55 62 55 82 0 15 2 28 5 28 3 0 5 -13 5 -29z
m-4 -131 c-31 -32 -56 -55 -56 -51 0 4 23 29 50 56 47 46 50 52 52 105 l2 55
3 -54 c4 -53 4 -54 -51 -111z m52 -54 l-53 -51 48 50 47 51 2 84 2 85 3 -84 4
-85 -53 -50z m89 17 c-2 -38 -3 -7 -3 67 0 74 1 105 3 68 2 -38 2 -98 0 -135z
m50 0 c-2 -38 -3 -7 -3 67 0 74 1 105 3 68 2 -38 2 -98 0 -135z m64 67 c6 0 9
-10 7 -22 -2 -17 -10 -23 -28 -23 -30 0 -39 28 -16 51 10 10 17 36 18 72 l2
57 3 -67 c2 -38 9 -68 14 -68z m93 -70 c32 -33 55 -60 50 -60 -5 0 -35 26 -67
58 l-57 58 2 74 2 75 5 -72 c6 -73 6 -73 65 -133z m51 30 c36 -36 65 -70 65
-76 0 -7 -31 21 -70 60 l-70 73 2 59 2 59 3 -56 c4 -53 6 -58 68 -119z m38 33
c49 -50 68 -63 92 -63 22 0 40 -9 60 -30 16 -16 24 -30 19 -30 -6 0 -20 11
-32 25 -13 15 -33 25 -49 25 -21 0 -45 17 -95 67 -63 62 -68 70 -66 108 l1 40
4 -40 c4 -33 15 -51 66 -102z m30 50 l41 -43 91 0 91 0 39 -40 c41 -42 69 -51
79 -25 14 36 73 4 61 -34 -9 -28 -30 -32 -58 -10 -14 10 -29 19 -34 19 -5 0
-27 18 -48 40 l-39 40 -96 0 -96 0 -42 43 c-32 32 -42 50 -41 72 2 27 2 28 6
5 3 -14 23 -44 46 -67z m35 25 c20 -22 35 -28 68 -28 24 0 46 5 49 10 3 6 46
10 95 10 69 0 89 3 94 15 14 37 73 4 61 -35 -8 -24 -53 -28 -61 -5 -5 12 -25
15 -89 15 -46 0 -87 -4 -90 -10 -3 -5 -27 -10 -53 -10 -38 0 -52 5 -79 32 -18
18 -32 41 -32 52 1 21 1 21 6 1 3 -11 17 -32 31 -47z"/>
<path d="M690 1285 l0 -95 49 0 c61 0 101 34 101 87 0 69 -33 102 -102 103
l-48 0 0 -95z"/>
<path d="M920 1290 c-10 -19 -8 -20 45 -20 53 0 55 1 45 20 -8 14 -21 20 -45
20 -24 0 -37 -6 -45 -20z"/>
<path d="M1250 1250 c0 -57 1 -60 25 -60 24 0 25 3 25 60 0 57 -1 60 -25 60
-24 0 -25 -3 -25 -60z"/>
</g>
</svg>
